<svg width="40.000000" height="40.000000" viewBox="0 0 40 40" fill="none" xmlns="http://www.w3.org/2000/svg" xmlns:xlink="http://www.w3.org/1999/xlink">
	<desc>
			Created with Pixso.
	</desc>
	<defs>
		<clipPath id="clip1_55">
			<rect id="Frame" rx="0.000000" width="39.000000" height="39.000000" transform="translate(0.500000 0.500000)" fill="white" fill-opacity="0"/>
		</clipPath>
	</defs>
	<rect id="Frame" rx="0.000000" width="39.000000" height="39.000000" transform="translate(0.500000 0.500000)" fill="#FFFFFF" fill-opacity="0"/>
	<g clip-path="url(#clip1_55)">
		<path id="Vector" d="M10 3.33C9.11 3.33 8.26 3.68 7.64 4.3C7.01 4.93 6.66 5.78 6.66 6.66L6.66 33.33C6.66 34.21 7.01 35.06 7.64 35.69C8.26 36.31 9.11 36.66 10 36.66L30 36.66C30.88 36.66 31.73 36.31 32.35 35.69C32.98 35.06 33.33 34.21 33.33 33.33L33.33 11.66L25 3.33L10 3.33Z" stroke="#D1D5DB" stroke-opacity="1.000000" stroke-width="2.000000" stroke-linejoin="round"/>
		<path id="Vector" d="M23.33 3.33L23.33 9.99C23.33 10.88 23.68 11.73 24.3 12.35C24.93 12.98 25.78 13.33 26.66 13.33L33.33 13.33" stroke="#D1D5DB" stroke-opacity="1.000000" stroke-width="2.000000" stroke-linejoin="round" stroke-linecap="round"/>
	</g>
</svg>
