<svg width="40.000000" height="40.000000" viewBox="0 0 40 40" fill="none" xmlns="http://www.w3.org/2000/svg" xmlns:xlink="http://www.w3.org/1999/xlink">
	<desc>
			Created with Pixso.
	</desc>
	<defs>
		<clipPath id="clip1_48">
			<rect id="Frame" rx="0.000000" width="39.000000" height="39.000000" transform="translate(0.500000 0.500000)" fill="white" fill-opacity="0"/>
		</clipPath>
	</defs>
	<rect id="Frame" rx="0.000000" width="39.000000" height="39.000000" transform="translate(0.500000 0.500000)" fill="#FFFFFF" fill-opacity="0"/>
	<g clip-path="url(#clip1_48)">
		<path id="Vector" d="M30 18.33L30 10C30 9.11 29.64 8.26 29.02 7.64C28.39 7.01 27.55 6.66 26.66 6.66C25.78 6.66 24.93 7.01 24.3 7.64C23.68 8.26 23.33 9.11 23.33 10" stroke="#D1D5DB" stroke-opacity="1.000000" stroke-width="2.000000" stroke-linejoin="round" stroke-linecap="round"/>
		<path id="Vector" d="M23.33 16.66L23.33 6.66C23.33 5.78 22.98 4.93 22.35 4.3C21.73 3.68 20.88 3.33 20 3.33C19.11 3.33 18.26 3.68 17.64 4.3C17.01 4.93 16.66 5.78 16.66 6.66L16.66 9.99" stroke="#D1D5DB" stroke-opacity="1.000000" stroke-width="2.000000" stroke-linejoin="round" stroke-linecap="round"/>
		<path id="Vector" d="M16.66 17.5L16.66 10C16.66 9.11 16.31 8.26 15.69 7.64C15.06 7.01 14.21 6.66 13.33 6.66C12.44 6.66 11.6 7.01 10.97 7.64C10.35 8.26 10 9.11 10 10L10 23.33" stroke="#D1D5DB" stroke-opacity="1.000000" stroke-width="2.000000" stroke-linejoin="round" stroke-linecap="round"/>
		<path id="Vector" d="M30 13.33C30 12.44 30.35 11.6 30.97 10.97C31.6 10.35 32.44 10 33.33 10C34.21 10 35.06 10.35 35.69 10.97C36.31 11.6 36.66 12.44 36.66 13.33L36.66 23.33C36.66 26.86 35.26 30.26 32.76 32.76C30.26 35.26 26.86 36.66 23.33 36.66L20 36.66C15.33 36.66 12.5 35.23 10.01 32.76L4.01 26.76C3.44 26.13 3.13 25.3 3.15 24.44C3.18 23.58 3.53 22.77 4.13 22.17C4.74 21.56 5.55 21.21 6.41 21.2C7.27 21.18 8.1 21.49 8.73 22.06L11.66 25" stroke="#D1D5DB" stroke-opacity="1.000000" stroke-width="2.000000" stroke-linejoin="round" stroke-linecap="round"/>
	</g>
</svg>
